# Blender 4.1.1
# www.blender.org
mtllib up_arrow.mtl
o Cube
v 0.261034 1.681206 -1.847000
v 0.261034 -1.681206 -1.847000
v 0.261034 1.681206 1.847000
v 0.261034 -1.681206 1.847000
v -0.261034 1.681206 -1.847000
v -0.261034 -1.681206 -1.847000
v -0.261034 1.681206 1.847000
v -0.261034 -1.681206 1.847000
vn -0.0000 1.0000 -0.0000
vn -0.0000 -0.0000 1.0000
vn -1.0000 -0.0000 -0.0000
vn -0.0000 -1.0000 -0.0000
vn 1.0000 -0.0000 -0.0000
vn -0.0000 -0.0000 -1.0000
vt 0.500000 0.500000
vt 0.000000 0.500000
vt 0.000000 0.000000
vt 0.500000 0.000000
vt 0.000000 1.000000
vt 0.000000 0.500000
vt 0.500000 0.500000
vt 0.500000 1.000000
vt 0.375000 0.000000
vt 0.625000 0.000000
vt 0.625000 0.250000
vt 0.375000 0.250000
vt 0.125000 0.500000
vt 0.375000 0.500000
vt 0.375000 0.750000
vt 0.125000 0.750000
vt 0.996058 0.002083
vt 0.996058 0.996850
vt 0.001291 0.996850
vt 0.001291 0.002082
vt 0.625000 0.500000
s 0
usemtl Material
f 1/1/1 5/2/1 7/3/1 3/4/1
f 4/5/2 3/6/2 7/7/2 8/8/2
f 8/9/3 7/10/3 5/11/3 6/12/3
f 6/13/4 2/14/4 4/15/4 8/16/4
f 2/17/5 1/18/5 3/19/5 4/20/5
f 6/12/6 5/11/6 1/21/6 2/14/6
